<?xml version="1.0" standalone="no"?>
<!DOCTYPE svg PUBLIC "-//W3C//DTD SVG 20010904//EN"
 "http://www.w3.org/TR/2001/REC-SVG-20010904/DTD/svg10.dtd">
<svg version="1.0" xmlns="http://www.w3.org/2000/svg"
 width="512.000000pt" height="512.000000pt" viewBox="0 0 512.000000 512.000000"
 preserveAspectRatio="xMidYMid meet">
<metadata>
Created by potrace 1.14, written by Peter Selinger 2001-2017
</metadata>
<g transform="translate(0.000000,512.000000) scale(0.100000,-0.100000)"
fill="#000000" stroke="none">
<path d="M2260 5105 c-921 -112 -1707 -705 -2064 -1558 -262 -625 -262 -1349
0 -1974 260 -620 757 -1117 1377 -1377 625 -262 1349 -262 1974 0 620 260
1117 757 1377 1377 262 625 262 1349 0 1974 -260 620 -757 1117 -1377 1377
-219 92 -452 153 -696 181 -151 18 -444 18 -591 0z m276 -1336 c219 -40 323
-195 341 -509 l6 -106 91 92 c141 142 261 192 437 182 195 -11 311 -118 350
-322 5 -27 9 -108 9 -180 0 -182 -20 -300 -129 -761 -27 -115 -52 -235 -56
-266 -10 -78 7 -135 47 -155 28 -14 34 -14 73 1 52 19 160 110 319 267 65 65
124 118 130 118 34 -1 55 -52 56 -138 0 -128 -132 -327 -305 -455 -155 -115
-282 -162 -440 -162 -89 0 -106 3 -151 27 -59 31 -108 84 -138 147 -17 38 -21
64 -20 151 1 116 18 194 118 555 97 346 134 550 116 646 -33 178 -217 108
-404 -154 -121 -171 -258 -490 -301 -704 -21 -107 -32 -246 -23 -303 13 -87 8
-183 -11 -225 -42 -94 -173 -177 -281 -179 -80 -1 -108 20 -137 105 -44 126
-29 236 91 671 170 616 217 887 187 1062 -24 139 -71 183 -182 173 -73 -6
-130 -37 -206 -110 -132 -127 -235 -315 -338 -622 -52 -157 -135 -487 -135
-540 0 -25 12 -107 26 -183 34 -179 36 -297 5 -369 -30 -68 -49 -84 -165 -139
-80 -38 -110 -47 -157 -48 -71 -1 -104 20 -139 90 -22 44 -25 64 -29 189 -5
234 31 501 174 1270 51 271 57 369 30 461 -19 67 -61 104 -115 104 -39 0 -58
-11 -211 -119 -25 -18 -64 -35 -86 -38 -55 -7 -67 15 -61 111 8 114 58 190
176 268 101 65 181 89 318 95 171 8 257 -24 321 -121 39 -57 52 -100 67 -220
l11 -90 60 95 c109 173 255 293 406 333 65 18 174 20 255 5z"/>
</g>
</svg>
